<svg width="128" height="128" viewBox="0 0 128 128" fill="none" xmlns="http://www.w3.org/2000/svg">
<path d="M124.737 58.378L69.621 3.26405C66.449 0.090045 61.301 0.090045 58.124 3.26405L46.68 14.71L61.198 29.228C64.573 28.089 68.441 28.853 71.13 31.542C73.833 34.248 74.591 38.149 73.424 41.535L87.416 55.528C90.801 54.361 94.708 55.115 97.41 57.823C101.19 61.6 101.19 67.723 97.41 71.502C96.5117 72.4008 95.4452 73.1137 94.2713 73.6001C93.0974 74.0865 91.8392 74.3369 90.5685 74.3369C89.2978 74.3369 88.0396 74.0865 86.8657 73.6001C85.6919 73.1137 84.6253 72.4008 83.727 71.502C82.3774 70.1516 81.4574 68.4321 81.0829 66.56C80.7083 64.6879 80.8959 62.7468 81.622 60.981L68.574 47.933L68.572 82.274C69.5187 82.7403 70.383 83.3577 71.131 84.102C74.909 87.879 74.909 94 71.131 97.785C67.352 101.562 61.227 101.562 57.452 97.785C53.674 94.001 53.674 87.88 57.452 84.102C58.3572 83.1955 59.4338 82.4782 60.619 81.992V47.333C59.4328 46.8483 58.3559 46.1304 57.452 45.222C54.59 42.362 53.901 38.162 55.369 34.646L41.056 20.333L3.26401 58.123C1.73933 59.6482 0.882812 61.7165 0.882812 63.873C0.882813 66.0296 1.73933 68.0979 3.26401 69.623L58.381 124.737C61.555 127.911 66.701 127.911 69.88 124.737L124.738 69.879C126.262 68.3535 127.119 66.285 127.118 64.1283C127.118 61.9717 126.262 59.9034 124.737 58.378Z" fill="#F34F29"/>
<path d="M61.198 29.228L46.68 14.71L41.056 20.333L55.369 34.646C53.901 38.162 54.59 42.362 57.452 45.222C58.3559 46.1304 59.4328 46.8483 60.619 47.333V81.992C59.4338 82.4782 58.3572 83.1955 57.452 84.102C53.674 87.88 53.674 94.001 57.452 97.785C61.227 101.562 67.352 101.562 71.131 97.785C74.909 94 74.909 87.879 71.131 84.102C70.383 83.3577 69.5187 82.7403 68.572 82.274L68.574 47.933L81.622 60.981C80.8959 62.7468 80.7083 64.6879 81.0829 66.56C81.4574 68.4321 82.3774 70.1516 83.727 71.502C84.6253 72.4008 85.6919 73.1137 86.8657 73.6001C88.0396 74.0865 89.2978 74.3369 90.5685 74.3369C91.8392 74.3369 93.0974 74.0865 94.2713 73.6001C95.4452 73.1137 96.5117 72.4008 97.41 71.502C101.19 67.723 101.19 61.6 97.41 57.823C94.708 55.115 90.801 54.361 87.416 55.528L73.424 41.535C74.591 38.149 73.833 34.248 71.13 31.542C68.441 28.853 64.573 28.089 61.198 29.228Z" fill="white"/>
</svg>
