<svg width="122" height="118" viewBox="0 0 122 118" fill="none" xmlns="http://www.w3.org/2000/svg">
<path fill-rule="evenodd" clip-rule="evenodd" d="M61 0.103027C27.653 0.103027 0.612 27.138 0.612 60.491C0.612 87.173 17.915 109.808 41.909 117.794C44.926 118.354 46.034 116.484 46.034 114.889C46.034 113.449 45.978 108.692 45.952 103.646C29.152 107.299 25.607 96.521 25.607 96.521C22.86 89.541 18.902 87.685 18.902 87.685C13.422 83.937 19.315 84.015 19.315 84.015C25.378 84.44 28.572 90.238 28.572 90.238C33.958 99.468 42.699 96.8 46.145 95.258C46.687 91.355 48.252 88.69 49.979 87.182C36.566 85.657 22.465 80.478 22.465 57.339C22.465 50.746 24.825 45.359 28.688 41.129C28.06 39.609 25.993 33.467 29.272 25.149C29.272 25.149 34.342 23.526 45.882 31.339C50.7 30 55.867 29.327 61 29.304C66.13 29.327 71.3 29.998 76.127 31.337C87.653 23.524 92.717 25.147 92.717 25.147C96.004 33.464 93.937 39.607 93.31 41.127C97.182 45.357 99.525 50.744 99.525 57.337C99.525 80.531 85.398 85.637 71.951 87.133C74.118 89.007 76.048 92.683 76.048 98.316C76.048 106.396 75.978 112.899 75.978 114.888C75.978 116.495 77.066 118.378 80.126 117.785C104.106 109.791 121.389 87.163 121.389 60.491C121.388 27.14 94.35 0.104027 61 0.104027V0.103027Z" fill="white"/>
<path d="M23.484 86.8059C23.351 87.1059 22.879 87.1959 22.449 86.9909C22.009 86.7949 21.764 86.3859 21.906 86.0849C22.036 85.7749 22.509 85.6899 22.946 85.8969C23.386 86.0939 23.636 86.5069 23.483 86.8069L23.484 86.8059ZM25.93 89.5349C25.643 89.8019 25.08 89.6779 24.698 89.2549C24.302 88.8349 24.228 88.2719 24.521 88.0009C24.819 87.7349 25.365 87.8609 25.761 88.2809C26.155 88.7069 26.233 89.2649 25.931 89.5359L25.93 89.5349ZM28.312 93.0119C27.942 93.2699 27.336 93.0289 26.962 92.4919C26.592 91.9539 26.592 91.3089 26.972 91.0519C27.345 90.7939 27.942 91.0269 28.322 91.5589C28.69 92.1039 28.69 92.7489 28.312 93.0109V93.0119ZM31.573 96.3729C31.243 96.7379 30.537 96.6399 30.021 96.1429C29.494 95.6559 29.347 94.9629 29.678 94.5989C30.014 94.2329 30.723 94.3349 31.242 94.8289C31.769 95.3149 31.928 96.0089 31.575 96.3719L31.573 96.3729ZM36.073 98.3239C35.926 98.7969 35.248 99.0119 34.563 98.8099C33.88 98.6029 33.433 98.0499 33.573 97.5719C33.713 97.0949 34.396 96.8719 35.085 97.0869C35.768 97.2929 36.215 97.8429 36.073 98.3239ZM41.016 98.6849C41.033 99.1829 40.453 99.5949 39.736 99.6049C39.013 99.6219 38.428 99.2179 38.421 98.7279C38.421 98.2249 38.989 97.8179 39.711 97.8039C40.428 97.7909 41.017 98.1909 41.017 98.6839L41.016 98.6849ZM45.614 97.9029C45.7 98.3879 45.201 98.8869 44.488 99.0199C43.788 99.1499 43.138 98.8479 43.048 98.3669C42.962 97.8689 43.47 97.3699 44.17 97.2409C44.884 97.1179 45.524 97.4109 45.614 97.9039V97.9029Z" fill="white"/>
</svg>
